<svg width="1200" height="720" viewBox="0 0 1200 720" fill="none" xmlns="http://www.w3.org/2000/svg">
  <defs>
    <linearGradient id="bg" x1="0" y1="0" x2="1200" y2="720" gradientUnits="userSpaceOnUse">
      <stop stop-color="#0F172A"/>
      <stop offset="1" stop-color="#111827"/>
    </linearGradient>
    <linearGradient id="accent" x1="210" y1="130" x2="940" y2="610" gradientUnits="userSpaceOnUse">
      <stop stop-color="#0EA5E9" stop-opacity="0.45"/>
      <stop offset="1" stop-color="#3B82F6" stop-opacity="0.2"/>
    </linearGradient>
  </defs>
  <rect width="1200" height="720" rx="28" fill="url(#bg)"/>
  <rect x="40" y="40" width="1120" height="640" rx="22" fill="#0B1220" stroke="#334155"/>
  <rect x="72" y="76" width="1056" height="44" rx="12" fill="#111827" stroke="#334155"/>
  <circle cx="98" cy="98" r="7" fill="#F87171"/>
  <circle cx="121" cy="98" r="7" fill="#FBBF24"/>
  <circle cx="144" cy="98" r="7" fill="#34D399"/>
  <rect x="170" y="86" width="280" height="24" rx="8" fill="#1E293B"/>
  <rect x="72" y="146" width="250" height="500" rx="14" fill="#0F172A" stroke="#334155"/>
  <rect x="96" y="172" width="180" height="16" rx="8" fill="#334155"/>
  <rect x="96" y="205" width="200" height="10" rx="5" fill="#1E293B"/>
  <rect x="96" y="228" width="160" height="10" rx="5" fill="#1E293B"/>
  <rect x="96" y="251" width="190" height="10" rx="5" fill="#1E293B"/>
  <rect x="350" y="146" width="778" height="312" rx="16" fill="url(#accent)" stroke="#1D4ED8"/>
  <rect x="380" y="178" width="240" height="20" rx="10" fill="#BFDBFE" fill-opacity="0.6"/>
  <rect x="380" y="212" width="360" height="12" rx="6" fill="#93C5FD" fill-opacity="0.4"/>
  <rect x="380" y="238" width="300" height="12" rx="6" fill="#93C5FD" fill-opacity="0.25"/>
  <rect x="350" y="476" width="244" height="170" rx="16" fill="#0F172A" stroke="#334155"/>
  <rect x="620" y="476" width="244" height="170" rx="16" fill="#0F172A" stroke="#334155"/>
  <rect x="890" y="476" width="238" height="170" rx="16" fill="#0F172A" stroke="#334155"/>
  <text x="380" y="606" fill="#E2E8F0" font-size="28" font-family="Arial, sans-serif" font-weight="700">Demo Web Premium</text>
  <text x="380" y="636" fill="#94A3B8" font-size="18" font-family="Arial, sans-serif">Dashboard " Analytics " CRM " Automations</text>
</svg>
